<mxfile host="app.diagrams.net" modified="2024-07-18T07:37:13.521Z" agent="Mozilla/5.0 (Windows NT 10.0; Win64; x64) AppleWebKit/537.36 (KHTML, like Gecko) Chrome/126.0.0.0 Safari/537.36" etag="jrCzbfqng-rYTzGpJaZx" version="24.7.1" type="device">
  <diagram name="Seite-1" id="JV44ztOA8aU_zgyuqtqy">
    <mxGraphModel dx="2518" dy="1410" grid="1" gridSize="10" guides="1" tooltips="1" connect="1" arrows="1" fold="1" page="1" pageScale="1" pageWidth="827" pageHeight="1169" math="0" shadow="0">
      <root>
        <mxCell id="0" />
        <mxCell id="1" parent="0" />
        <mxCell id="J5XLAef-QbFakfGws62c-1" value="" style="verticalAlign=top;align=left;spacingTop=8;spacingLeft=2;spacingRight=12;shape=cube;size=10;direction=south;fontStyle=4;html=1;whiteSpace=wrap;flipV=0;flipH=1;" vertex="1" parent="1">
          <mxGeometry x="400" y="130" width="310" height="240" as="geometry" />
        </mxCell>
        <mxCell id="J5XLAef-QbFakfGws62c-2" value="Debian VPS" style="text;html=1;align=center;verticalAlign=middle;whiteSpace=wrap;rounded=0;fontSize=12;" vertex="1" parent="1">
          <mxGeometry x="495" y="140" width="110" height="30" as="geometry" />
        </mxCell>
        <mxCell id="J5XLAef-QbFakfGws62c-3" value="" style="rounded=0;whiteSpace=wrap;html=1;" vertex="1" parent="1">
          <mxGeometry x="440" y="170" width="240" height="180" as="geometry" />
        </mxCell>
        <mxCell id="J5XLAef-QbFakfGws62c-4" value="&lt;font style=&quot;font-size: 12px;&quot;&gt;Docker&lt;/font&gt;" style="text;html=1;align=center;verticalAlign=middle;whiteSpace=wrap;rounded=0;fontSize=16;" vertex="1" parent="1">
          <mxGeometry x="440" y="170" width="60" height="30" as="geometry" />
        </mxCell>
        <mxCell id="J5XLAef-QbFakfGws62c-5" value="MySQL Datenbank" style="rounded=1;whiteSpace=wrap;html=1;" vertex="1" parent="1">
          <mxGeometry x="570" y="200" width="100" height="60" as="geometry" />
        </mxCell>
        <mxCell id="J5XLAef-QbFakfGws62c-6" value="Python/TS-Spielserver" style="rounded=1;whiteSpace=wrap;html=1;" vertex="1" parent="1">
          <mxGeometry x="450" y="200" width="100" height="60" as="geometry" />
        </mxCell>
        <mxCell id="J5XLAef-QbFakfGws62c-8" value="Spielclient" style="rounded=1;whiteSpace=wrap;html=1;" vertex="1" parent="1">
          <mxGeometry x="510" y="280" width="100" height="60" as="geometry" />
        </mxCell>
        <mxCell id="J5XLAef-QbFakfGws62c-9" value="" style="verticalAlign=top;align=left;spacingTop=8;spacingLeft=2;spacingRight=12;shape=cube;size=10;direction=south;fontStyle=4;html=1;whiteSpace=wrap;flipH=1;" vertex="1" parent="1">
          <mxGeometry x="100" y="210" width="180" height="120" as="geometry" />
        </mxCell>
        <mxCell id="J5XLAef-QbFakfGws62c-10" value="Nutzer Browser" style="text;align=center;fontStyle=1;verticalAlign=middle;spacingLeft=3;spacingRight=3;strokeColor=none;rotatable=0;points=[[0,0.5],[1,0.5]];portConstraint=eastwest;html=1;" vertex="1" parent="1">
          <mxGeometry x="150" y="220" width="80" height="26" as="geometry" />
        </mxCell>
        <mxCell id="J5XLAef-QbFakfGws62c-11" value="Godot Client" style="rounded=1;whiteSpace=wrap;html=1;" vertex="1" parent="1">
          <mxGeometry x="140" y="250" width="120" height="60" as="geometry" />
        </mxCell>
        <mxCell id="J5XLAef-QbFakfGws62c-12" value="" style="endArrow=classic;html=1;rounded=0;fontSize=12;startSize=8;endSize=8;curved=1;exitX=1;exitY=0.5;exitDx=0;exitDy=0;entryX=0.625;entryY=0.006;entryDx=0;entryDy=0;entryPerimeter=0;" edge="1" parent="1" source="J5XLAef-QbFakfGws62c-11" target="J5XLAef-QbFakfGws62c-1">
          <mxGeometry width="50" height="50" relative="1" as="geometry">
            <mxPoint x="250" y="470" as="sourcePoint" />
            <mxPoint x="300" y="420" as="targetPoint" />
          </mxGeometry>
        </mxCell>
        <mxCell id="J5XLAef-QbFakfGws62c-13" value="&lt;font style=&quot;font-size: 12px;&quot;&gt;Ruft Dashboard auf&lt;/font&gt;" style="text;html=1;align=center;verticalAlign=middle;whiteSpace=wrap;rounded=0;fontSize=16;" vertex="1" parent="1">
          <mxGeometry x="280" y="245" width="120" height="30" as="geometry" />
        </mxCell>
      </root>
    </mxGraphModel>
  </diagram>
</mxfile>
